<?xml version="1.0" encoding="UTF-8"?>
<svg id="Layer_1" data-name="Layer 1" xmlns="http://www.w3.org/2000/svg" viewBox="0 0 65.07 65.07">
  <defs>
    <style>
      .cls-1 {
        fill: #fff;
      }
    </style>
  </defs>
  <path class="cls-1" d="m26.23,34.45h16.36l-22.49,14.32,6.13-14.32Zm0-3.84h16.36l-22.49-14.31,6.13,14.31Zm38.84-11.23v26.3c0,10.7-8.7,19.39-19.39,19.39h-26.3c-10.7,0-19.38-8.69-19.38-19.39v-26.3C0,8.69,8.69,0,19.38,0h26.3c10.7,0,19.39,8.69,19.39,19.38Zm-13.97,13.15c0-.66-.33-1.26-.89-1.62L16.92,9.73c-.31-.2-.67-.3-1.03-.3-.46,0-.89.16-1.24.46-.64.55-.85,1.44-.52,2.22l8.76,20.43-8.76,20.43c-.33.78-.12,1.68.52,2.22.35.29.79.46,1.24.46.37,0,.72-.1,1.03-.3l33.3-21.19c.55-.35.89-.96.89-1.62Z"/>
</svg>