<?xml version="1.0" encoding="UTF-8"?>
<svg id="Layer_1" data-name="Layer 1" xmlns="http://www.w3.org/2000/svg" viewBox="0 0 65.07 65.07">
  <defs>
    <style>
      .cls-1 {
        fill: #fff;
      }
    </style>
  </defs>
  <path class="cls-1" d="m45.68,0h-26.3C8.69,0,0,8.7,0,19.38v26.3c0,10.69,8.69,19.39,19.38,19.39h26.3c10.69,0,19.39-8.7,19.39-19.39v-26.3c0-10.68-8.7-19.38-19.39-19.38Zm-2.69,32.55h-6.84v24.39h-10.13v-24.39h-4.82v-8.62h4.82v-5.57c0-4,1.9-10.23,10.23-10.23l7.51.03v8.37h-5.46c-.88,0-2.14.44-2.14,2.34v5.07h7.72l-.88,8.61Z"/>
</svg>