<?xml version="1.0" encoding="UTF-8"?>
<svg id="Layer_1" data-name="Layer 1" xmlns="http://www.w3.org/2000/svg" viewBox="0 0 65.07 65.07">
  <defs>
    <style>
      .cls-1 {
        fill: #fff;
      }
    </style>
  </defs>
  <path class="cls-1" d="m42.4,13.04h-19.73c-5.32,0-9.63,4.31-9.63,9.63v19.73c0,5.32,4.31,9.63,9.63,9.63h19.73c5.32,0,9.63-4.31,9.63-9.63v-19.73c0-5.32-4.31-9.63-9.63-9.63Zm-9.86,32.11c-6.96,0-12.62-5.66-12.62-12.62s5.66-12.62,12.62-12.62,12.62,5.66,12.62,12.62-5.66,12.62-12.62,12.62Zm12.65-22.12c-1.67,0-3.02-1.35-3.02-3.02s1.35-3.02,3.02-3.02,3.02,1.35,3.02,3.02-1.35,3.02-3.02,3.02Z"/>
  <path class="cls-1" d="m32.54,24.82c-4.26,0-7.71,3.45-7.71,7.71s3.45,7.71,7.71,7.71,7.71-3.45,7.71-7.71-3.45-7.71-7.71-7.71Z"/>
  <path class="cls-1" d="m45.68,0h-26.3C8.69,0,0,8.7,0,19.38v26.3c0,10.69,8.69,19.39,19.38,19.39h26.3c10.69,0,19.39-8.7,19.39-19.39v-26.3c0-10.68-8.7-19.38-19.39-19.38Zm11.26,42.4c0,8.02-6.52,14.54-14.54,14.54h-19.73c-8.02,0-14.54-6.52-14.54-14.54v-19.73c0-8.02,6.52-14.54,14.54-14.54h19.73c8.02,0,14.54,6.52,14.54,14.54v19.73Z"/>
</svg>