<?xml version="1.0" encoding="UTF-8"?>
<svg id="Layer_1" data-name="Layer 1" xmlns="http://www.w3.org/2000/svg" viewBox="0 0 65.07 65.07">
  <defs>
    <style>
      .cls-1 {
        fill: #fff;
      }
    </style>
  </defs>
  <path class="cls-1" d="m35.09,29.41v-.09s-.04.06-.06.09h.06Z"/>
  <path class="cls-1" d="m45.68,0h-26.3C8.69,0,0,8.7,0,19.38v26.3c0,10.69,8.69,19.39,19.38,19.39h26.3c10.69,0,19.39-8.7,19.39-19.39v-26.3c0-10.68-8.7-19.38-19.39-19.38Zm-24.76,52.87h-9.12v-27.44h9.12v27.44Zm-4.56-31.19h-.06c-3.06,0-5.04-2.11-5.04-4.74s2.04-4.74,5.16-4.74,5.04,2.05,5.1,4.74c0,2.63-1.98,4.74-5.16,4.74Zm37.46,31.19h-9.12v-14.68c0-3.69-1.32-6.2-4.62-6.2-2.52,0-4.02,1.69-4.68,3.34-.24.59-.3,1.4-.3,2.22v15.33h-9.12s.12-24.87,0-27.44h9.13v3.89c1.21-1.87,3.37-4.53,8.22-4.53,6,0,10.5,3.92,10.5,12.35v15.74Z"/>
</svg>