<?xml version="1.0" encoding="UTF-8"?>
<svg id="Layer_1" data-name="Layer 1" xmlns="http://www.w3.org/2000/svg" viewBox="0 0 65.07 65.07">
  <defs>
    <style>
      .cls-1 {
        fill: #fff;
      }
    </style>
  </defs>
  <path class="cls-1" d="m45.68,0h-26.3C8.69,0,0,8.7,0,19.38v26.3c0,10.69,8.69,19.39,19.38,19.39h26.3c10.69,0,19.39-8.7,19.39-19.39v-26.3c0-10.68-8.7-19.38-19.39-19.38Zm-10.07,43.2c-2.88-.22-4.09-1.65-6.35-3.02-1.24,6.52-2.76,12.77-7.26,16.03-1.39-9.85,2.04-17.25,3.63-25.11-2.71-4.57.33-13.76,6.05-11.49,7.04,2.79-6.1,16.98,2.72,18.76,9.21,1.85,12.97-15.98,7.26-21.78-8.25-8.37-24.02-.19-22.08,11.8.47,2.93,3.5,3.82,1.21,7.86-5.28-1.17-6.86-5.34-6.65-10.89.33-9.09,8.17-15.46,16.03-16.34,9.95-1.11,19.28,3.65,20.57,13.01,1.45,10.56-4.49,22-15.13,21.17Z"/>
</svg>