<?xml version="1.0" encoding="UTF-8"?>
<svg id="Layer_1" data-name="Layer 1" xmlns="http://www.w3.org/2000/svg" viewBox="0 0 65.07 65.07">
  <defs>
    <style>
      .cls-1 {
        fill: #fff;
      }
    </style>
  </defs>
  <path class="cls-1" d="m45.68,0h-26.3C8.69,0,0,8.7,0,19.38v26.3c0,10.69,8.69,19.39,19.38,19.39h26.3c10.69,0,19.39-8.7,19.39-19.39v-26.3c0-10.68-8.7-19.38-19.39-19.38ZM9.69,39.96c0,.43-.35.78-.78.78s-.78-.35-.78-.78v-5.31c0-.43.35-.78.78-.78s.78.35.78.78v5.31Zm2.57,1.88c0,.43-.35.78-.78.78s-.78-.35-.78-.78v-9.22c0-.43.35-.78.78-.78s.78.35.78.78v9.22Zm2.57.29c0,.43-.35.78-.78.78s-.78-.35-.78-.78v-9.8c0-.43.35-.78.78-.78s.78.35.78.78v9.8Zm2.57,0c0,.43-.35.78-.78.78s-.78-.35-.78-.78v-11.06c0-.43.35-.78.78-.78s.78.35.78.78v11.06Zm2.57,0c0,.43-.35.78-.78.78s-.78-.35-.78-.78v-14.07c0-.43.35-.78.78-.78s.78.35.78.78v14.07Zm2.57,0c0,.43-.35.78-.78.78s-.78-.35-.78-.78v-15.62c0-.43.35-.78.78-.78s.78.35.78.78v15.62Zm2.57,0c0,.43-.35.78-.78.78s-.78-.35-.78-.78v-16.4c0-.43.35-.78.78-.78s.78.35.78.78v16.4Zm2.57,0c0,.43-.35.78-.78.78s-.78-.35-.78-.78v-15.24c0-.43.35-.78.78-.78s.78.35.78.78v15.24Zm2.57,0c0,.43-.35.78-.78.78s-.78-.35-.78-.78v-16.11c0-.43.35-.78.78-.78s.78.35.78.78v16.11Zm2.57,0c0,.43-.35.78-.78.78s-.78-.35-.78-.78v-18.03c0-.43.35-.78.78-.78s.78.35.78.78v18.03Zm18.48.8h-16.99c-.43,0-.77-.35-.77-.77v-18.43c0-.3.18-.58.45-.7,1.29-.57,2.71-.89,4.21-.89,5.67,0,10.27,4.54,10.39,10.18.88-.48,1.9-.73,2.98-.68,2.84.14,5.16,2.41,5.36,5.25.23,3.3-2.38,6.05-5.64,6.05Z"/>
</svg>