<?xml version="1.0" encoding="UTF-8"?>
<svg id="Layer_1" data-name="Layer 1" xmlns="http://www.w3.org/2000/svg" viewBox="0 0 65.07 65.07">
  <defs>
    <style>
      .cls-1 {
        fill: #fff;
      }
    </style>
  </defs>
  <path class="cls-1" d="m45.68,0h-26.3C8.69,0,0,8.7,0,19.38v26.3c0,10.69,8.69,19.39,19.38,19.39h26.3c10.69,0,19.39-8.7,19.39-19.39v-26.3c0-10.68-8.7-19.38-19.39-19.38Zm11.16,17.77c-1.16,1.73-2.57,3.28-4.18,4.59-.43.35-.67.85-.67,1.39v.16c0,3.36-.65,6.88-1.89,10.18-1.3,3.46-3.17,6.59-5.56,9.3-2.57,2.91-5.62,5.2-9.07,6.8-3.77,1.75-7.94,2.63-12.4,2.63-5.1,0-10.11-1.35-14.51-3.91-.32-.19-.49-.56-.4-.92.1-.36.41-.61.79-.61h1.22c3.9,0,7.65-1.14,10.87-3.3-3.88-.63-7.12-3.41-8.33-7.17-.13-.4.22-.79.63-.71.59.11,1.18.17,1.77.17.07,0,.15,0,.22,0-3.72-1.7-6.2-5.47-6.15-9.71,0-.42.45-.68.82-.47.75.42,1.56.73,2.4.93-1.99-1.96-3.14-4.65-3.14-7.5,0-1.86.49-3.69,1.42-5.29.19-.33.66-.37.9-.07,4.76,5.84,11.49,9.44,18.96,10.13.01,0,.03,0,.04,0,.11,0,.22-.05.29-.13.04-.05.11-.15.09-.3-.14-1.27-.06-2.57.25-3.87.83-3.47,3.46-6.29,6.87-7.34,1.1-.34,2.22-.51,3.33-.51,2.57,0,5.04.93,6.96,2.63.25.22.57.34.9.34.11,0,.22-.01.32-.04,1.81-.46,3.54-1.17,5.14-2.13.44-.26.96.16.8.64-.54,1.69-1.5,3.2-2.77,4.41,1.15-.27,2.28-.65,3.36-1.13.5-.22.99.35.68.81Z"/>
</svg>