<?xml version="1.0" encoding="UTF-8"?>
<svg id="Layer_1" data-name="Layer 1" xmlns="http://www.w3.org/2000/svg" viewBox="0 0 65.07 65.07">
  <defs>
    <style>
      .cls-1 {
        fill: #fff;
      }
    </style>
  </defs>
  <path class="cls-1" d="m45.68,0h-26.3C8.69,0,0,8.7,0,19.38v26.3c0,10.69,8.69,19.39,19.38,19.39h26.3c10.69,0,19.39-8.7,19.39-19.39v-26.3c0-10.68-8.7-19.38-19.39-19.38Zm11.23,21.66c-.21,4.6-3.49,10.92-9.62,18.9-6.77,8.81-12.01,12.53-16.39,12.53s-8.29-11.77-10.99-21.64c-1.41-5.08-2.6-7.22-3.97-7.15-1.26.06-2.92,1.25-4.69,2.51l-.06.04c-.57.4-1.35.29-1.78-.26l-1.02-1.31c-.43-.55-.35-1.33.18-1.78.22-.19.5-.43.84-.72,5.45-4.74,12.1-10.18,15.07-10.18,3.91,0,4.51,2.14,5.71,6.39.12.41,4.3,18.98,5.46,18.98.35,0,1.56-1.55,3.76-5,1.8-2.83,3.26-5.51,3.54-6.51.34-1.19.27-2.09-.19-2.7-.6-.79-1.8-.96-2.7-.96-.67,0-1.37.1-2.07.29-.36.1-.74-.01-.99-.28-.25-.28-.33-.67-.2-1.02,2.44-6.69,6.82-9.98,13-9.78,2.19.06,3.9.74,5.08,2.02,1.48,1.6,2.16,4.17,2,7.65Z"/>
</svg>