<?xml version="1.0" encoding="UTF-8"?>
<svg id="Layer_1" data-name="Layer 1" xmlns="http://www.w3.org/2000/svg" viewBox="0 0 65.07 65.07">
  <defs>
    <style>
      .cls-1 {
        fill: #fff;
      }
    </style>
  </defs>
  <path class="cls-1" d="m39.96,32.27l-13.35-6.76c-.36-.18-.78.08-.78.48v13.13c0,.39.41.65.77.48l13.34-6.36c.4-.19.41-.76.01-.96Z"/>
  <path class="cls-1" d="m45.68,0h-26.3C8.69,0,0,8.7,0,19.38v26.3c0,10.69,8.69,19.39,19.38,19.39h26.3c10.69,0,19.39-8.7,19.39-19.39v-26.3c0-10.68-8.7-19.38-19.39-19.38Zm11.26,39.67c0,5.6-4.54,10.14-10.14,10.14h-28.53c-5.6,0-10.14-4.54-10.14-10.14v-14.26c0-5.6,4.54-10.14,10.14-10.14h28.53c5.6,0,10.14,4.54,10.14,10.14v14.26Z"/>
</svg>