<?xml version="1.0" encoding="UTF-8"?>
<svg id="Layer_2" data-name="Layer 2" xmlns="http://www.w3.org/2000/svg" viewBox="0 0 449.84 265.3">
  <defs>
    <style>
      .cls-1 {
        fill: #869da3;
      }

      .cls-2 {
        fill: #002554;
      }

      .cls-3 {
        fill: none;
      }
    </style>
  </defs>
  <g id="Layer_1-2" data-name="Layer 1">
    <g>
      <polygon class="cls-1" points="419.71 0 339.38 25.82 363.01 99.38 388.01 50.71 376.69 44.9 403.49 31.57 408.28 61.13 396.96 55.31 371.97 103.98 445.53 80.34 419.71 0"/>
      <path class="cls-2" d="m27.57,199.81h9.67v-76.35c0-.88.71-1.6,1.6-1.6h24.38c.88,0,1.6-.71,1.6-1.6v-6.33c0-.88-.71-1.6-1.6-1.6H1.6c-.88,0-1.6.72-1.6,1.6v6.33c0,.88.71,1.6,1.6,1.6h24.38c.88,0,1.6.72,1.6,1.6v76.35Z"/>
      <path class="cls-2" d="m139.43,199.81h9.67v-85.88c0-.88-.71-1.6-1.6-1.6h-6.47c-.88,0-1.6.72-1.6,1.6v35.29c0,.88-.71,1.6-1.6,1.6h-52.07c-.88,0-1.6-.72-1.6-1.6v-35.29c0-.88-.71-1.6-1.6-1.6h-6.33c-.88,0-1.6.72-1.6,1.6v85.88h9.53v-37.87c0-.88.71-1.6,1.6-1.6h52.07c.88,0,1.6.72,1.6,1.6v37.87Z"/>
      <path class="cls-2" d="m226.2,199.81h10.27l-20.15-34.65c-.53-.9-.06-2.06.95-2.34l2.35-.66c16.21-4.56,17.47-20.32,17.47-25.05,0-7.45-2.62-24.77-26.88-24.77h-46.13c-.88,0-1.6.72-1.6,1.6v6.33c0,.88.71,1.6,1.6,1.6h46.69c9.96,0,16.65,6.41,16.65,15.95,0,8.29-5.15,16.65-16.65,16.65h-36.81c-8.48,0-11.34,2.9-11.34,11.48v33.87h9.53v-29.06c0-4.12,3.34-7.47,7.47-7.47h24.11c.57,0,1.09.3,1.38.79l21.09,35.74Z"/>
      <rect class="cls-2" x="249.06" y="112.44" width="9.53" height="87.37"/>
      <path class="cls-2" d="m387.99,123.51c0-.88.71-1.6,1.6-1.6h58.65c.88,0,1.6-.72,1.6-1.6v-6.47c0-.88-.71-1.6-1.6-1.6h-60.25s-9.53,0-9.53,0h0s0,0,0,0v9.67h0v29.02h0v9.67h0v29.65h0v9.67h71.38v-8.07c0-.88-.71-1.6-1.6-1.6h-58.65c-.88,0-1.6-.71-1.6-1.6v-26.45c0-.88.71-1.6,1.6-1.6h58.65c.88,0,1.6-.71,1.6-1.6v-6.47c0-.88-.71-1.6-1.6-1.6h-60.25v-27.42Z"/>
      <path class="cls-2" d="m355.1,117.59l-35.65,69.67-41.04-75.53h-10.01l47.2,89.03c.87,1.6,2.38,2.56,4,2.56.02,0,.05,0,.08,0,1.65-.03,3.16-1.06,4-2.71l43.86-87.96-12.43,4.94Z"/>
      <path class="cls-1" d="m137.06,250.05c.43.53.95,1.01,1.57,1.43.62.43,1.34.78,2.16,1.05.82.27,1.74.41,2.76.41s1.99-.16,2.83-.49c.84-.33,1.55-.77,2.14-1.33.59-.56,1.04-1.21,1.36-1.97.32-.75.47-1.56.47-2.42,0-1.31-.37-2.35-1.12-3.12-.74-.77-1.67-1.41-2.78-1.93-1.11-.51-2.31-.98-3.59-1.41-1.28-.43-2.48-.96-3.59-1.6-1.11-.64-2.04-1.46-2.78-2.46-.75-1-1.12-2.34-1.12-4.02,0-1.2.24-2.29.71-3.27.48-.98,1.16-1.83,2.07-2.55.9-.71,1.99-1.27,3.25-1.67,1.27-.4,2.69-.6,4.28-.6s2.84.17,3.94.49c1.11.33,2.14.83,3.09,1.52-.29.49-.52,1-.71,1.54-.19.54-.38,1.23-.57,2.05h-.57c-.16-.4-.37-.84-.64-1.3-.27-.47-.63-.91-1.09-1.31-.46-.4-1.01-.73-1.64-1.01-.64-.27-1.4-.4-2.28-.4s-1.7.13-2.45.38c-.74.26-1.4.62-1.95,1.09s-.98,1.04-1.28,1.69c-.3.66-.45,1.37-.45,2.14,0,1.34.37,2.4,1.12,3.17.74.77,1.67,1.42,2.78,1.95,1.11.53,2.31,1,3.59,1.41,1.28.41,2.48.92,3.59,1.52,1.11.6,2.04,1.37,2.78,2.31.74.94,1.12,2.2,1.12,3.76,0,1.31-.26,2.55-.79,3.72-.52,1.17-1.28,2.19-2.28,3.06s-2.22,1.54-3.66,2.01c-1.44.47-3.08.71-4.92.71-1.96,0-3.56-.24-4.78-.71-1.22-.47-2.24-1.01-3.07-1.6.28-.66.48-1.25.59-1.78.11-.53.21-1.21.31-2.03h.57c.25.51.59,1.04,1.02,1.56"/>
      <path class="cls-1" d="m157.39,244.55c0-3.51.93-6.26,2.78-8.26,1.85-1.99,4.55-2.99,8.1-2.99,1.68,0,3.13.23,4.35.71,1.22.47,2.24,1.1,3.06,1.88.82.79,1.43,1.71,1.83,2.76.39,1.06.59,2.18.59,3.38,0,.28,0,.56-.02.83-.01.27-.04.55-.07.83-1.71-.03-3.41-.06-5.09-.08-1.68-.03-3.38-.04-5.09-.04-1.05,0-2.09.01-3.11.04-1.03.03-2.07.06-3.11.08-.03.14-.05.36-.05.64v.56c0,1.11.18,2.15.54,3.12.36.97.89,1.8,1.59,2.5.7.7,1.55,1.25,2.57,1.67,1.02.41,2.19.62,3.52.62.63,0,1.28-.08,1.95-.23.67-.16,1.31-.37,1.95-.64.63-.27,1.23-.59,1.78-.96.55-.37,1.04-.77,1.45-1.2l.24.13-.28,2.1c-.95.69-2.13,1.27-3.54,1.76-1.41.48-2.88.73-4.4.73-1.71,0-3.27-.24-4.68-.71-1.41-.47-2.63-1.16-3.66-2.06-1.03-.9-1.82-1.96-2.38-3.19-.55-1.23-.83-2.55-.83-3.98m10.98-9.88c-1.17,0-2.16.24-2.97.73-.81.49-1.47,1.09-2,1.82-.52.73-.92,1.53-1.19,2.4-.27.87-.44,1.69-.5,2.46.98.03,2,.06,3.07.09,1.06.03,2.1.04,3.11.04s2.11-.01,3.19-.04c1.08-.03,2.12-.06,3.14-.09,0-.77-.07-1.58-.21-2.44-.14-.86-.43-1.65-.86-2.4-.43-.74-1.02-1.35-1.78-1.84-.76-.49-1.76-.73-3-.73"/>
      <path class="cls-1" d="m192.59,236.76c-.46-.14-.93-.21-1.4-.21-.76,0-1.44.16-2.04.47-.6.31-1.11.73-1.52,1.26s-.73,1.16-.95,1.88c-.22.73-.33,1.51-.33,2.33v4.7c0,1.91,0,3.37.02,4.39.01,1.01.07,1.83.17,2.46-.64-.06-1.27-.09-1.9-.09-.7,0-1.36.03-2,.09.1-.97.15-2.29.17-3.96.01-1.67.02-3.72.02-6.14v-1.37c0-1.11,0-2.4-.02-3.85-.02-1.45-.07-3.12-.17-5,.35.06.68.11,1,.15.32.04.65.06,1,.06.29,0,.59-.02.9-.06.32-.04.65-.09,1-.15-.13,1.03-.2,1.84-.21,2.44-.02.6-.02,1.17-.02,1.71l.1.04c1.87-3.08,3.96-4.62,6.27-4.62.29,0,.53.01.74.04.2.03.47.1.78.21-.16.34-.25.86-.29,1.56-.03.7-.05,1.33-.05,1.9l-.33.21c-.16-.17-.47-.33-.93-.47"/>
      <path class="cls-1" d="m204.59,254.05c-1.46-3.37-2.92-6.73-4.4-10.1-1.47-3.37-3.08-6.78-4.82-10.22.41.06.81.11,1.19.15.38.04.78.06,1.19.06.35,0,.7-.02,1.05-.06.35-.04.7-.09,1.05-.15.98,2.82,2.05,5.6,3.21,8.32,1.16,2.72,2.45,5.51,3.88,8.37.63-1.17,1.26-2.43,1.88-3.79.62-1.35,1.24-2.76,1.85-4.21.62-1.46,1.22-2.92,1.8-4.39.59-1.47,1.17-2.9,1.74-4.3.57.14,1.06.21,1.47.21s.9-.07,1.47-.21c-1.71,3.45-3.39,6.86-5.04,10.22-1.65,3.37-3.16,6.73-4.52,10.1-.48-.06-.97-.09-1.47-.09s-1.01.03-1.52.09"/>
      <path class="cls-1" d="m221.85,226.28c0-.6.24-1.11.71-1.54.47-.43,1.05-.64,1.71-.64s1.24.21,1.71.64c.48.43.71.94.71,1.54s-.24,1.11-.71,1.54c-.48.43-1.05.64-1.71.64s-1.24-.21-1.71-.64c-.48-.43-.71-.94-.71-1.54m.67,15.45c0-1.28-.02-2.63-.07-4.04-.05-1.41-.15-2.73-.31-3.96.89.14,1.6.21,2.14.21s1.25-.07,2.14-.21c-.16,1.23-.26,2.55-.31,3.96-.05,1.41-.07,2.76-.07,4.04v4.45c0,1.28.02,2.63.07,4.04.05,1.41.15,2.69.31,3.83-.73-.06-1.44-.08-2.14-.08s-1.41.03-2.14.08c.16-1.14.26-2.42.31-3.83.05-1.41.07-2.76.07-4.04v-4.45Z"/>
      <path class="cls-1" d="m232.4,243.95c0-1.85.35-3.45,1.05-4.79.7-1.34,1.61-2.44,2.73-3.32,1.12-.87,2.42-1.51,3.87-1.93,1.46-.41,2.95-.62,4.47-.62,1.74,0,3.3.19,4.68.58,1.38.38,2.37.82,2.97,1.31-.22.43-.42.88-.6,1.35-.17.47-.33.96-.45,1.48h-.38c-.22-.37-.52-.75-.9-1.13-.38-.38-.83-.74-1.36-1.07s-1.1-.6-1.74-.81c-.63-.21-1.33-.32-2.09-.32-1.43,0-2.66.24-3.68.71-1.03.47-1.87,1.12-2.52,1.95-.65.83-1.12,1.8-1.43,2.93-.3,1.13-.45,2.35-.45,3.66,0,2.94.7,5.16,2.09,6.65,1.39,1.5,3.44,2.25,6.13,2.25.63,0,1.28-.08,1.95-.23.67-.16,1.32-.37,1.95-.64.63-.27,1.23-.59,1.78-.96.55-.37,1.04-.77,1.45-1.2l.24.13c-.16.69-.25,1.39-.29,2.1-.95.68-2.13,1.27-3.54,1.75-1.41.49-2.87.73-4.4.73-1.36,0-2.73-.18-4.11-.54-1.38-.35-2.62-.95-3.73-1.79-1.11-.84-2-1.93-2.68-3.27-.68-1.34-1.02-2.98-1.02-4.92"/>
      <path class="cls-1" d="m255.36,244.55c0-3.51.93-6.26,2.78-8.26,1.85-1.99,4.56-2.99,8.11-2.99,1.68,0,3.13.23,4.35.71,1.22.47,2.24,1.1,3.07,1.88.82.79,1.43,1.71,1.83,2.76.4,1.06.59,2.18.59,3.38,0,.28,0,.56-.02.83-.01.27-.04.55-.07.83-1.71-.03-3.41-.06-5.09-.08-1.68-.03-3.38-.04-5.09-.04-1.05,0-2.09.01-3.11.04-1.03.03-2.07.06-3.11.08-.03.14-.05.36-.05.64v.56c0,1.11.18,2.15.54,3.12.36.97.9,1.8,1.59,2.5.7.7,1.55,1.25,2.57,1.67,1.01.41,2.19.62,3.52.62.63,0,1.28-.08,1.95-.23.67-.16,1.32-.37,1.95-.64.63-.27,1.23-.59,1.78-.96.55-.37,1.04-.77,1.45-1.2l.24.13-.28,2.1c-.95.69-2.13,1.27-3.54,1.76-1.41.48-2.87.73-4.4.73-1.71,0-3.27-.24-4.68-.71-1.41-.47-2.63-1.16-3.66-2.06-1.03-.9-1.82-1.96-2.38-3.19-.55-1.23-.83-2.55-.83-3.98m10.98-9.88c-1.17,0-2.16.24-2.97.73-.81.49-1.47,1.09-2,1.82-.52.73-.92,1.53-1.19,2.4-.27.87-.44,1.69-.5,2.46.98.03,2,.06,3.06.09,1.06.03,2.1.04,3.11.04s2.11-.01,3.19-.04c1.08-.03,2.12-.06,3.14-.09,0-.77-.07-1.58-.21-2.44-.14-.86-.43-1.65-.86-2.4-.43-.74-1.02-1.35-1.78-1.84-.76-.49-1.76-.73-3-.73"/>
      <path class="cls-1" d="m281.11,251.01c.33.34.73.66,1.19.96.46.3.98.55,1.57.75.58.2,1.21.3,1.88.3.6,0,1.18-.08,1.74-.26.55-.17,1.05-.41,1.47-.73.43-.31.77-.71,1.02-1.2.25-.49.38-1.04.38-1.67,0-.89-.28-1.56-.83-2.03-.55-.47-1.25-.86-2.07-1.15-.82-.3-1.73-.56-2.71-.79-.98-.23-1.89-.55-2.71-.96-.82-.41-1.51-.96-2.07-1.65-.55-.68-.83-1.62-.83-2.82,0-.94.17-1.8.52-2.59.35-.78.86-1.46,1.52-2.03.67-.57,1.49-1.02,2.47-1.35.98-.33,2.11-.49,3.38-.49,1.17,0,2.16.14,2.97.43.81.29,1.58.54,2.31.77-.25.43-.49.96-.71,1.58-.22.63-.36,1.11-.43,1.45h-.57c-.25-.69-.74-1.3-1.47-1.84-.73-.54-1.63-.81-2.71-.81-.48,0-.95.07-1.43.21-.48.14-.9.36-1.28.64-.38.28-.7.66-.95,1.11-.25.46-.38,1-.38,1.63,0,.91.28,1.62.83,2.12.55.5,1.24.89,2.07,1.18.83.29,1.73.53,2.71.75.98.21,1.89.52,2.71.9.83.38,1.51.92,2.07,1.6.55.69.83,1.63.83,2.83,0,.83-.2,1.64-.59,2.44-.4.8-.97,1.52-1.71,2.16-.75.64-1.64,1.14-2.69,1.5-1.05.35-2.23.53-3.57.53-1.46,0-2.68-.13-3.66-.38-.98-.26-1.81-.56-2.47-.9.19-.37.39-.88.59-1.52.21-.64.31-1.18.31-1.6h.57c.16.29.4.6.74.94"/>
      <path class="cls-1" d="m337.87,228.33c-.71-.51-1.51-.96-2.38-1.35-.87-.38-1.84-.7-2.9-.94-1.06-.24-2.2-.36-3.4-.36-1.96,0-3.8.27-5.49.81-1.7.54-3.17,1.38-4.42,2.5-1.25,1.13-2.23,2.55-2.95,4.28-.71,1.73-1.07,3.77-1.07,6.14,0,2.08.32,3.96.95,5.65.63,1.68,1.56,3.1,2.78,4.26,1.22,1.16,2.71,2.05,4.47,2.68,1.76.63,3.75.94,5.97.94.67,0,1.36-.03,2.09-.09.73-.06,1.43-.14,2.12-.26.68-.11,1.31-.26,1.9-.43.59-.17,1.08-.37,1.5-.6.03-.86.06-1.71.07-2.57.01-.86.02-1.73.02-2.61,0-1-.02-1.99-.07-2.99-.05-1-.1-1.95-.17-2.87.79.14,1.55.21,2.28.21.35,0,.7-.01,1.05-.04.35-.03.68-.08,1-.17-.06.66-.11,1.69-.14,3.1-.03,1.41-.05,3.27-.05,5.58,0,.57,0,1.15.02,1.73.01.58.02,1.16.02,1.73-.67.23-1.5.46-2.5.71-1,.24-2.06.44-3.19.6-1.12.16-2.25.3-3.38.43-1.12.13-2.15.19-3.06.19-2.82,0-5.37-.31-7.63-.92-2.27-.61-4.19-1.56-5.78-2.84-1.59-1.28-2.81-2.88-3.66-4.79-.86-1.91-1.28-4.12-1.28-6.63s.44-4.59,1.33-6.48c.89-1.9,2.14-3.5,3.76-4.81,1.61-1.31,3.57-2.31,5.87-3,2.3-.68,4.84-1.03,7.63-1.03,1.61,0,3.05.08,4.3.23,1.25.16,2.36.36,3.33.62.97.26,1.81.53,2.54.81.73.28,1.38.56,1.95.81-.25.4-.48.91-.69,1.54-.2.63-.34,1.21-.4,1.76h-.57c-.48-.52-1.07-1.03-1.78-1.54"/>
      <path class="cls-1" d="m357.83,236.76c-.46-.14-.93-.21-1.4-.21-.76,0-1.44.16-2.04.47-.6.31-1.11.73-1.52,1.26s-.73,1.16-.95,1.88c-.22.73-.33,1.51-.33,2.33v4.7c0,1.91,0,3.37.02,4.39.01,1.01.07,1.83.17,2.46-.63-.06-1.27-.09-1.9-.09-.7,0-1.36.03-2,.09.1-.97.15-2.29.17-3.96.02-1.67.02-3.72.02-6.14v-1.37c0-1.11,0-2.4-.02-3.85-.01-1.45-.07-3.12-.17-5,.35.06.68.11,1,.15.32.04.65.06,1,.06.29,0,.59-.02.9-.06.32-.04.65-.09,1-.15-.13,1.03-.2,1.84-.21,2.44-.01.6-.02,1.17-.02,1.71l.1.04c1.87-3.08,3.96-4.62,6.27-4.62.29,0,.53.01.74.04.2.03.47.1.78.21-.16.34-.25.86-.29,1.56-.03.7-.05,1.33-.05,1.9l-.33.21c-.16-.17-.47-.33-.93-.47"/>
      <path class="cls-1" d="m361.28,243.95c0-1.94.34-3.59,1.02-4.94.68-1.35,1.58-2.45,2.68-3.29,1.11-.84,2.35-1.45,3.73-1.84s2.75-.58,4.11-.58,2.77.19,4.13.58c1.36.38,2.6,1,3.71,1.84,1.11.84,2,1.94,2.68,3.29.68,1.36,1.02,3,1.02,4.94s-.34,3.59-1.02,4.94c-.68,1.35-1.58,2.45-2.68,3.29-1.11.84-2.35,1.43-3.71,1.78-1.36.34-2.74.51-4.13.51s-2.73-.17-4.11-.51c-1.38-.34-2.62-.93-3.73-1.78-1.11-.84-2-1.94-2.68-3.29-.68-1.36-1.02-3-1.02-4.94m4.18,0c0,1.2.12,2.35.36,3.47.24,1.11.64,2.1,1.21,2.97.57.87,1.33,1.56,2.28,2.08.95.51,2.12.77,3.52.77s2.57-.26,3.52-.77c.95-.52,1.71-1.21,2.28-2.08.57-.87.98-1.86,1.21-2.97.24-1.11.36-2.27.36-3.47s-.12-2.35-.36-3.47c-.24-1.11-.64-2.1-1.21-2.97-.57-.87-1.33-1.56-2.28-2.07-.95-.52-2.13-.77-3.52-.77s-2.57.26-3.52.77c-.95.51-1.71,1.2-2.28,2.07-.57.87-.97,1.86-1.21,2.97-.24,1.11-.36,2.27-.36,3.47"/>
      <path class="cls-1" d="m389.18,247.59c0-1.51.02-2.8.07-3.87.05-1.07.07-2.13.07-3.19,0-1,0-2.08-.02-3.25-.01-1.17-.04-2.35-.07-3.55.79.14,1.46.21,1.99.21.51,0,1.16-.07,1.95-.21-.16,1.71-.28,3.59-.36,5.63-.08,2.04-.12,4.13-.12,6.27,0,1.48.14,2.62.43,3.4.28.78.63,1.38,1.05,1.78.44.46,1.01.83,1.69,1.13.68.3,1.48.45,2.4.45,1.33,0,2.44-.26,3.33-.79.89-.53,1.54-1.18,1.95-1.95.22-.49.4-.9.52-1.24.13-.34.23-.8.31-1.37.08-.57.13-1.34.14-2.31.01-.97.02-2.3.02-3.98v-3.59c0-.63,0-1.23-.02-1.8-.02-.57-.04-1.11-.07-1.62.35.06.68.11,1,.15.32.04.65.06,1,.06s.68-.02,1-.06c.32-.04.63-.09.95-.15-.16,2.23-.25,4.37-.28,6.44-.03,2.07-.05,4.26-.05,6.57,0,1.28.02,2.54.05,3.76.03,1.23.08,2.41.14,3.55-.64-.06-1.25-.08-1.86-.08s-1.22.03-1.85.08c.03-.26.06-.53.07-.81.02-.29.02-.58.02-.9v-1.84h-.1c-.82,1.37-1.88,2.37-3.19,3.02-1.3.64-2.71.96-4.23.96-2.47,0-4.41-.59-5.82-1.78-1.41-1.18-2.12-2.89-2.12-5.11"/>
      <path class="cls-1" d="m414.62,246.17c0-.97,0-2.03-.02-3.17-.01-1.14-.04-2.28-.07-3.4-.03-1.13-.07-2.2-.12-3.23-.05-1.03-.1-1.91-.17-2.65.89.14,1.6.21,2.14.21s1.25-.07,2.14-.21c-.13.74-.22,1.45-.28,2.14-.06.69-.1,1.37-.1,2.06h.1c.22-.46.54-.95.95-1.48s.94-1.03,1.59-1.5c.65-.47,1.43-.86,2.35-1.18.92-.31,1.97-.47,3.14-.47s2.39.21,3.57.62c1.17.41,2.21,1.05,3.12,1.9.9.86,1.63,1.95,2.18,3.27.55,1.33.83,2.9.83,4.73s-.3,3.41-.9,4.75c-.6,1.34-1.39,2.45-2.35,3.34-.97.88-2.07,1.53-3.3,1.95-1.24.41-2.47.62-3.71.62-3.49,0-5.97-1.35-7.46-4.06h-.1v2.69c0,.91,0,1.93.02,3.06.02,1.13.04,2.25.07,3.36.03,1.11.07,2.17.12,3.19.05,1.01.1,1.88.17,2.59-.89-.14-1.6-.21-2.14-.21s-1.25.07-2.14.21c.06-.71.12-1.58.17-2.59.05-1.01.09-2.08.12-3.19.03-1.11.05-2.23.07-3.36.02-1.13.02-2.15.02-3.06v-6.93Zm17.16-2.4c0-1.71-.2-3.12-.59-4.24-.4-1.11-.9-2-1.52-2.68-.62-.67-1.32-1.13-2.12-1.39-.79-.26-1.57-.38-2.33-.38-1.27,0-2.35.24-3.26.73-.9.49-1.64,1.13-2.21,1.95-.57.81-.98,1.77-1.24,2.86-.25,1.1-.38,2.26-.38,3.49,0,5.93,2.31,8.9,6.94,8.9,1.14,0,2.13-.23,2.97-.71.84-.47,1.54-1.13,2.09-1.97.55-.84.97-1.82,1.24-2.95.27-1.13.4-2.33.4-3.61"/>
      <line class="cls-3" x1="134.57" y1="263.16" x2="411.97" y2="262.08"/>
    </g>
  </g>
</svg>